<?xml version="1.0" encoding="UTF-8" standalone="no"?><!DOCTYPE svg PUBLIC "-//W3C//DTD SVG 1.1//EN" "http://www.w3.org/Graphics/SVG/1.1/DTD/svg11.dtd"><svg width="100%" height="100%" viewBox="0 0 17639 17639" version="1.1" xmlns="http://www.w3.org/2000/svg" xmlns:xlink="http://www.w3.org/1999/xlink" xml:space="preserve" style="fill-rule:evenodd;clip-rule:evenodd;stroke-linejoin:round;stroke-miterlimit:1.41421;"><g id="Layer_x0020_1"><rect x="0" y="0" width="17639" height="17639" style="fill:#d573f7;"/><rect x="1478.28" y="1478.23" width="14682.5" height="14682.5" style="fill:#252653;"/><path d="M4053,4752.36l0,8130.84l1608.21,2.293l0,-2564.26c548.227,0 1119.25,-2.293 1578.57,-104.359c604.075,-135.323 1030.35,-410.556 1408.75,-810.79c396.638,-418.584 704.375,-995.427 704.375,-1856.68c0,-1990.85 -1290.21,-2934.67 -3314.44,-2865.86l-1985.47,68.808Zm1608.21,4283.32l2.279,-3039.03c672.462,-13.762 1258.3,-5.734 1643.54,338.307c302.038,269.499 413.735,563.081 402.337,1248.87c-21.655,1328 -906.113,1451.86 -2048.16,1451.86Z" style="fill:#d573f7;"/><path d="M10153,8308.6l3.419,4642.26l1605.93,8.028l4.559,-3990.88l-4.559,-176.608c580.14,-511.475 957.402,-680.055 1755.24,-661.706c63.827,2.294 84.343,2.294 84.343,-79.129l0,-1173.18c4.559,-207.572 -41.031,-262.619 -276.963,-254.591c-632.569,20.642 -814.932,72.249 -1254.88,446.107c-93.461,80.276 -370.423,413.996 -370.423,413.996c0,-405.968 -90.042,-680.055 -201.739,-762.625c-77.504,-56.193 -96.88,-51.606 -208.577,-51.606l-211.996,0l-890.156,-12.615c-98.02,16.056 -103.719,38.992 -101.439,152.525c11.397,506.888 67.246,863.544 67.246,1500.02Z" style="fill:#d573f7;"/></g></svg>