<?xml version="1.0" encoding="UTF-8" standalone="no"?><!DOCTYPE svg PUBLIC "-//W3C//DTD SVG 1.1//EN" "http://www.w3.org/Graphics/SVG/1.1/DTD/svg11.dtd"><svg width="100%" height="100%" viewBox="0 0 17639 17639" version="1.1" xmlns="http://www.w3.org/2000/svg" xmlns:xlink="http://www.w3.org/1999/xlink" xml:space="preserve" style="fill-rule:evenodd;clip-rule:evenodd;stroke-linejoin:round;stroke-miterlimit:1.41421;"><g id="Layer_x0020_1"><rect x="-54.473" y="0" width="17747.9" height="17639" style="fill:#87bcf6;"/><rect x="1432.93" y="1478.23" width="14773.1" height="14682.5" style="fill:#252653;"/><path d="M13104,6934.73c-1314.24,-662.853 -3576.88,-341.748 -3576.88,1387.63c0,1287.86 891.067,1794.75 1980.53,2220.21c1548.19,604.366 43.578,1746.58 -1846.36,565.374c0,0 -67.662,-33.257 -100.919,0c-33.258,33.258 -33.258,66.515 -33.258,100.919c0,33.258 0,1240.84 0,1240.84c660.56,338.307 1153.69,510.328 1916.31,502.3c2459.89,-25.23 2814.26,-2380.77 1505.75,-3286.74c-237.389,-165.14 -872.718,-494.272 -1073.41,-571.108c-1040.15,-396.795 -951.848,-961.022 -621.568,-1245.43c364.684,-315.371 1376.16,161.699 1801.63,427.758c258.031,159.406 300.463,-38.991 299.316,-213.306l-3.441,-824.552c0,-196.104 -67.661,-212.159 -247.709,-303.903Z" style="fill:#87bcf6;"/><path d="M5507.53,8994.39l0,-3020.68c0,-14.909 52.753,-66.515 66.514,-66.515c1279.83,-65.368 2008.06,184.635 2073.42,1551.63c74.542,1568.83 -1240.84,1602.09 -2139.94,1602.09l0,-66.514Zm-1543.6,-4195.01l0,8120.52l1543.6,0l0,-2617.01c1896.81,135.323 3607.85,-544.733 3607.85,-2737.42c0,-884.186 -275.234,-1774.11 -927.765,-2311.96c-911.71,-752.303 -3042.47,-584.87 -4223.68,-454.134Z" style="fill:#87bcf6;"/></g></svg>